{"title":"Repo.Men.2010.UNRATED.480p.BRRip.MP4.AAC.FEEL-FREE","uid":5680770,"size":1229054642,"categoryP":"other","categoryS":"other","magnet":"?xt=urn:btih:7709e69dfeab2c0d35a7a9f48eafa49d567ebe87&amp;dn=Repo.Men.2010.UNRATED.480p.BRRip.MP4.AAC.FEEL-FREE&amp;tr=udp%3A%2F%2Ftracker.openbittorrent.com%3A80&amp;tr=udp%3A%2F%2Fopen.demonii.com%3A1337&amp;tr=udp%3A%2F%2Ftracker.coppersurfer.tk%3A6969&amp;tr=udp%3A%2F%2Fexodus.desync.com%3A6969","seeders":0,"leechers":0,"uploader":"SaM","files":7,"time":1278799357,"description":"extratorrent.com\n &lt;a href=&quot;\nhttp://extratorrent.com/torrent/2265353&quot; rel=&quot;nofollow&quot; target=&quot;_NEW&quot;&gt;\nhttp://extratorrent.com/torrent/2265353&lt;/a&gt;\n\nGenre:Action | Sci-Fi | Thriller \nLanguage:English\nIMDb:[url]http://www.imdb.com/title/tt1053424/[/url]\nSource:720p.BluRay.x264-MACHD\nEncoder: Tony2\n.............................................\nGeneral\nComplete name                    : Repo.Men.2010.UNRATED.480p.BRRip.MP4.AAC.FEEL-FREE\nFormat                           : MPEG-4\nFormat profile                   : Base Media\nCodec ID                         : isom\nFile size                        : 1.14 GiB\nDuration                         : 1h 59mn\nOverall bit rate                 : 1 369 Kbps\n...............................................\nVideo\nID                               : 1\nFormat                           : MPEG-4 Visual\nFormat profile                   : Simple@L1\nFormat settings, BVOP            : No\nFormat settings, QPel            : No\nFormat settings, GMC             : No warppoints\nFormat settings, Matrix          : Default (H.263)\nCodec ID                         : 20\nDuration                         : 1h 59mn\nBit rate mode                    : Variable\nBit rate                         : 1 199 Kbps\nWidth                            : 720 pixels\nHeight                           : 304 pixels\nDisplay aspect ratio             : 2.35:1\nFrame rate mode                  : Constant\nFrame rate                       : 29.970 fps\nResolution                       : 24 bits\nColorimetry                      : 4:2:0\nScan type                        : Progressive\nBits/(Pixel*Frame)               : 0.183\nStream size                      : 1.00 GiB (88%)\n................................................\nAudio\nID                               : 2\nFormat                           : AAC\nFormat/Info                      : Advanced Audio Codec\nFormat version                   : Version 4\nFormat profile                   : LC\nFormat settings, SBR             : No\nCodec ID                         : 40\nDuration                         : 1h 59mn\nBit rate mode                    : Variable\nBit rate                         : 165 Kbps\nChannel(s)                       : 2 channels\nChannel positions                : L R\nSampling rate                    : 48.0 KHz\nResolution                       : 16 bits\nStream size                      : 141 MiB (12%)\n................................................\nPlot:\n   Set in the near future when artificial organs can be bought on credit, it revolves around a man who struggles to make the payments on a heart he has purchased. He must therefore go on the run before said ticker is repossessed","torrent":{"xt":"urn:btih:7709e69dfeab2c0d35a7a9f48eafa49d567ebe87","amp;dn":"Repo.Men.2010.UNRATED.480p.BRRip.MP4.AAC.FEEL-FREE","amp;tr":["udp%3A%2F%2Ftracker.openbittorrent.com%3A80","udp%3A%2F%2Fopen.demonii.com%3A1337","udp%3A%2F%2Ftracker.coppersurfer.tk%3A6969","udp%3A%2F%2Fexodus.desync.com%3A6969"],"infoHash":"7709e69dfeab2c0d35a7a9f48eafa49d567ebe87","infoHashBuffer":{"type":"Buffer","data":[119,9,230,157,254,171,44,13,53,167,169,244,142,175,164,157,86,126,190,135]},"announce":[],"urlList":[]}}